<svg xmlns="http://www.w3.org/2000/svg" xmlns:xlink="http://www.w3.org/1999/xlink" xmlns:serif="http://www.serif.com/" viewBox="0 0 134 110" version="1.1" xml:space="preserve" style="" x="0px" y="0px" fill-rule="evenodd" clip-rule="evenodd" stroke-linejoin="round" stroke-miterlimit="2">
  <rect x="0" y="0" width="133.333" height="133.333" style="" fill="none"/>
  <path d="M26.224,40.911l-16.849,-9.727c-0.996,-0.575 -2.271,-0.234 -2.846,0.762c-0.575,0.996 -0.233,2.271 0.763,2.846l17.287,9.981c0.95,1.447 3.312,5.059 5.19,8.062c0.009,0.014 0.018,0.029 0.027,0.043c1.468,2.223 2.018,4.929 1.534,7.549c-0.001,0.006 -0.002,0.012 -0.003,0.018c-2.533,14.426 3.988,29.548 17.401,37.292c13.419,7.747 29.783,5.829 40.938,-3.671c0,-0.001 0.001,-0.001 0.001,-0.002c2.049,-1.748 4.695,-2.634 7.383,-2.474l9.619,0.578l17.289,9.982c0.996,0.575 2.271,0.233 2.846,-0.763c0.575,-0.996 0.233,-2.271 -0.762,-2.846l-16.849,-9.727c-0.596,-0.906 -3.413,-5.191 -5.572,-8.64c-0.009,-0.014 -0.018,-0.028 -0.027,-0.042c-1.454,-2.203 -2.008,-4.879 -1.547,-7.478c0.001,-0.006 0.002,-0.012 0.003,-0.018c2.414,-14.349 -4.11,-29.341 -17.445,-37.04c-13.341,-7.702 -29.592,-5.851 -40.742,3.507c-0.001,0.001 -0.001,0.001 -0.002,0.001c-2.041,1.717 -4.663,2.585 -7.326,2.426l-10.311,-0.619Zm6.269,8.431c0.272,0.43 0.54,0.854 0.799,1.268c2.048,3.117 2.813,6.905 2.139,10.555c-2.239,12.752 3.525,26.119 15.381,32.964c11.85,6.841 26.301,5.154 36.151,-3.234c2.868,-2.448 6.572,-3.689 10.336,-3.464l1.301,0.078l-12.038,-6.95c-7.125,10.225 -21.038,13.466 -32.028,7.121c-10.99,-6.345 -15.139,-20.014 -9.846,-31.297l-12.195,-7.041Zm15.819,9.133l34.626,19.991c-5.961,8.238 -17.323,10.8 -26.32,5.606c-8.997,-5.195 -12.459,-16.315 -8.306,-25.597Zm52.944,25.756c-0.395,-0.62 -0.786,-1.238 -1.157,-1.831c-2.029,-3.087 -2.8,-6.834 -2.158,-10.455c2.134,-12.684 -3.632,-25.935 -15.419,-32.74c-11.781,-6.802 -26.134,-5.174 -35.979,3.088c-2.858,2.404 -6.529,3.619 -10.257,3.397l-1.993,-0.12l12.478,7.204c7.126,-10.225 21.038,-13.466 32.028,-7.121c10.99,6.345 15.139,20.014 9.846,31.297l12.611,7.281Zm-16.235,-9.373l-34.625,-19.991c5.961,-8.238 17.322,-10.8 26.32,-5.606c8.997,5.195 12.459,16.316 8.305,25.597Z" fill="white"/>
</svg>